<mxfile host="app.diagrams.net" modified="2021-09-29T16:43:36.195Z" agent="5.0 (Windows NT 10.0; Win64; x64) AppleWebKit/537.36 (KHTML, like Gecko) Chrome/94.0.4606.61 Safari/537.36" etag="9uZE_VGv3ghRr-pVFaN4" version="15.3.7" type="github">
  <diagram id="kgpKYQtTHZ0yAKxKKP6v" name="Page-1">
    <mxGraphModel dx="2426" dy="1358" grid="1" gridSize="10" guides="1" tooltips="1" connect="1" arrows="1" fold="1" page="1" pageScale="1" pageWidth="850" pageHeight="1100" math="0" shadow="0">
      <root>
        <mxCell id="0" />
        <mxCell id="1" parent="0" />
        <mxCell id="3nuBFxr9cyL0pnOWT2aG-1" value=":MapActivity" style="shape=umlLifeline;perimeter=lifelinePerimeter;container=1;collapsible=0;recursiveResize=0;rounded=0;shadow=0;strokeWidth=1;" parent="1" vertex="1">
          <mxGeometry x="120" y="80" width="100" height="960" as="geometry" />
        </mxCell>
        <mxCell id="3nuBFxr9cyL0pnOWT2aG-2" value="" style="points=[];perimeter=orthogonalPerimeter;rounded=0;shadow=0;strokeWidth=1;" parent="3nuBFxr9cyL0pnOWT2aG-1" vertex="1">
          <mxGeometry x="45" y="70" width="10" height="860" as="geometry" />
        </mxCell>
        <mxCell id="3nuBFxr9cyL0pnOWT2aG-3" value="dispatch" style="verticalAlign=bottom;startArrow=oval;endArrow=block;startSize=8;shadow=0;strokeWidth=1;" parent="3nuBFxr9cyL0pnOWT2aG-1" target="3nuBFxr9cyL0pnOWT2aG-2" edge="1">
          <mxGeometry relative="1" as="geometry">
            <mxPoint x="-15" y="70" as="sourcePoint" />
          </mxGeometry>
        </mxCell>
        <mxCell id="3nuBFxr9cyL0pnOWT2aG-5" value=":ForegroundLocationService" style="shape=umlLifeline;perimeter=lifelinePerimeter;container=1;collapsible=0;recursiveResize=0;rounded=0;shadow=0;strokeWidth=1;" parent="1" vertex="1">
          <mxGeometry x="500" y="80" width="180" height="960" as="geometry" />
        </mxCell>
        <mxCell id="3nuBFxr9cyL0pnOWT2aG-6" value="" style="points=[];perimeter=orthogonalPerimeter;rounded=0;shadow=0;strokeWidth=1;" parent="3nuBFxr9cyL0pnOWT2aG-5" vertex="1">
          <mxGeometry x="85" y="80" width="10" height="850" as="geometry" />
        </mxCell>
        <mxCell id="bV1dGxDPQDkdGFW-Yryn-1" value=":LocationDetailActivity" style="shape=umlLifeline;perimeter=lifelinePerimeter;container=1;collapsible=0;recursiveResize=0;rounded=0;shadow=0;strokeWidth=1;" vertex="1" parent="1">
          <mxGeometry x="760" y="80" width="160" height="960" as="geometry" />
        </mxCell>
        <mxCell id="bV1dGxDPQDkdGFW-Yryn-2" value="" style="points=[];perimeter=orthogonalPerimeter;rounded=0;shadow=0;strokeWidth=1;" vertex="1" parent="bV1dGxDPQDkdGFW-Yryn-1">
          <mxGeometry x="75" y="390" width="10" height="280" as="geometry" />
        </mxCell>
        <mxCell id="bV1dGxDPQDkdGFW-Yryn-35" value="" style="points=[];perimeter=orthogonalPerimeter;rounded=0;shadow=0;strokeWidth=1;" vertex="1" parent="bV1dGxDPQDkdGFW-Yryn-1">
          <mxGeometry x="75" y="790" width="10" height="60" as="geometry" />
        </mxCell>
        <mxCell id="bV1dGxDPQDkdGFW-Yryn-3" value=":FirebaseDB" style="shape=umlLifeline;perimeter=lifelinePerimeter;container=1;collapsible=0;recursiveResize=0;rounded=0;shadow=0;strokeWidth=1;" vertex="1" parent="1">
          <mxGeometry x="1240" y="80" width="160" height="960" as="geometry" />
        </mxCell>
        <mxCell id="bV1dGxDPQDkdGFW-Yryn-4" value="" style="points=[];perimeter=orthogonalPerimeter;rounded=0;shadow=0;strokeWidth=1;" vertex="1" parent="bV1dGxDPQDkdGFW-Yryn-3">
          <mxGeometry x="75" y="80" width="10" height="850" as="geometry" />
        </mxCell>
        <mxCell id="bV1dGxDPQDkdGFW-Yryn-5" value=":GoogleMapsAPI" style="shape=umlLifeline;perimeter=lifelinePerimeter;container=1;collapsible=0;recursiveResize=0;rounded=0;shadow=0;strokeWidth=1;" vertex="1" parent="1">
          <mxGeometry x="1480" y="80" width="160" height="960" as="geometry" />
        </mxCell>
        <mxCell id="bV1dGxDPQDkdGFW-Yryn-6" value="" style="points=[];perimeter=orthogonalPerimeter;rounded=0;shadow=0;strokeWidth=1;" vertex="1" parent="bV1dGxDPQDkdGFW-Yryn-5">
          <mxGeometry x="75" y="80" width="10" height="850" as="geometry" />
        </mxCell>
        <mxCell id="bV1dGxDPQDkdGFW-Yryn-9" value=":MapFragment" style="shape=umlLifeline;perimeter=lifelinePerimeter;container=1;collapsible=0;recursiveResize=0;rounded=0;shadow=0;strokeWidth=1;" vertex="1" parent="1">
          <mxGeometry x="300" y="80" width="120" height="960" as="geometry" />
        </mxCell>
        <mxCell id="bV1dGxDPQDkdGFW-Yryn-10" value="" style="points=[];perimeter=orthogonalPerimeter;rounded=0;shadow=0;strokeWidth=1;" vertex="1" parent="bV1dGxDPQDkdGFW-Yryn-9">
          <mxGeometry x="55" y="75" width="10" height="855" as="geometry" />
        </mxCell>
        <mxCell id="bV1dGxDPQDkdGFW-Yryn-11" value="loadFragments()" style="verticalAlign=bottom;endArrow=block;shadow=0;strokeWidth=1;" edge="1" parent="1" source="3nuBFxr9cyL0pnOWT2aG-2" target="bV1dGxDPQDkdGFW-Yryn-10">
          <mxGeometry x="0.0244" relative="1" as="geometry">
            <mxPoint x="190" y="210" as="sourcePoint" />
            <mxPoint x="685" y="210" as="targetPoint" />
            <Array as="points">
              <mxPoint x="280" y="210" />
            </Array>
            <mxPoint as="offset" />
          </mxGeometry>
        </mxCell>
        <mxCell id="3nuBFxr9cyL0pnOWT2aG-8" value="startService()" style="verticalAlign=bottom;endArrow=block;shadow=0;strokeWidth=1;" parent="1" source="3nuBFxr9cyL0pnOWT2aG-2" target="3nuBFxr9cyL0pnOWT2aG-6" edge="1">
          <mxGeometry x="0.6364" relative="1" as="geometry">
            <mxPoint x="190" y="310" as="sourcePoint" />
            <mxPoint x="580" y="310" as="targetPoint" />
            <Array as="points">
              <mxPoint x="410" y="310" />
              <mxPoint x="500" y="310" />
            </Array>
            <mxPoint as="offset" />
          </mxGeometry>
        </mxCell>
        <mxCell id="bV1dGxDPQDkdGFW-Yryn-12" value="repeat" style="shape=umlFrame;whiteSpace=wrap;html=1;" vertex="1" parent="1">
          <mxGeometry x="40" y="340" width="640" height="100" as="geometry" />
        </mxCell>
        <mxCell id="bV1dGxDPQDkdGFW-Yryn-14" value="updateLocation()" style="verticalAlign=bottom;endArrow=block;shadow=0;strokeWidth=1;" edge="1" parent="1" source="3nuBFxr9cyL0pnOWT2aG-6" target="3nuBFxr9cyL0pnOWT2aG-2">
          <mxGeometry x="0.6221" relative="1" as="geometry">
            <mxPoint x="590" y="380" as="sourcePoint" />
            <mxPoint x="200" y="380" as="targetPoint" />
            <Array as="points">
              <mxPoint x="495" y="380" />
            </Array>
            <mxPoint as="offset" />
          </mxGeometry>
        </mxCell>
        <mxCell id="bV1dGxDPQDkdGFW-Yryn-15" value="UpdateLocationWithMarker()" style="verticalAlign=bottom;endArrow=block;shadow=0;strokeWidth=1;" edge="1" parent="1" source="3nuBFxr9cyL0pnOWT2aG-2" target="bV1dGxDPQDkdGFW-Yryn-10">
          <mxGeometry x="-0.0556" relative="1" as="geometry">
            <mxPoint x="200" y="410" as="sourcePoint" />
            <mxPoint x="330" y="410" as="targetPoint" />
            <Array as="points">
              <mxPoint x="290" y="410" />
            </Array>
            <mxPoint as="offset" />
          </mxGeometry>
        </mxCell>
        <mxCell id="bV1dGxDPQDkdGFW-Yryn-13" value="While app is open" style="text;html=1;strokeColor=none;fillColor=none;align=center;verticalAlign=middle;whiteSpace=wrap;rounded=0;" vertex="1" parent="1">
          <mxGeometry x="70" y="390" width="60" height="20" as="geometry" />
        </mxCell>
        <mxCell id="bV1dGxDPQDkdGFW-Yryn-17" value="get mapping data" style="verticalAlign=bottom;endArrow=block;shadow=0;strokeWidth=1;" edge="1" parent="1" source="bV1dGxDPQDkdGFW-Yryn-10" target="bV1dGxDPQDkdGFW-Yryn-6">
          <mxGeometry x="0.869" relative="1" as="geometry">
            <mxPoint x="370" y="240" as="sourcePoint" />
            <mxPoint x="600" y="240" as="targetPoint" />
            <Array as="points">
              <mxPoint x="425" y="240" />
              <mxPoint x="515" y="240" />
            </Array>
            <mxPoint as="offset" />
          </mxGeometry>
        </mxCell>
        <mxCell id="bV1dGxDPQDkdGFW-Yryn-18" value="return mapping data" style="html=1;verticalAlign=bottom;endArrow=open;dashed=1;endSize=8;" edge="1" parent="1" source="bV1dGxDPQDkdGFW-Yryn-6" target="bV1dGxDPQDkdGFW-Yryn-9">
          <mxGeometry x="-0.869" relative="1" as="geometry">
            <mxPoint x="780" y="270" as="sourcePoint" />
            <mxPoint x="400" y="270" as="targetPoint" />
            <Array as="points">
              <mxPoint x="900" y="270" />
              <mxPoint x="780" y="270" />
            </Array>
            <mxPoint as="offset" />
          </mxGeometry>
        </mxCell>
        <mxCell id="bV1dGxDPQDkdGFW-Yryn-19" value="openLocationDetailView()" style="verticalAlign=bottom;endArrow=block;shadow=0;strokeWidth=1;" edge="1" parent="1" source="3nuBFxr9cyL0pnOWT2aG-2" target="bV1dGxDPQDkdGFW-Yryn-2">
          <mxGeometry x="0.7121" relative="1" as="geometry">
            <mxPoint x="190" y="490" as="sourcePoint" />
            <mxPoint x="600" y="490" as="targetPoint" />
            <Array as="points">
              <mxPoint x="425" y="490" />
              <mxPoint x="515" y="490" />
            </Array>
            <mxPoint as="offset" />
          </mxGeometry>
        </mxCell>
        <mxCell id="bV1dGxDPQDkdGFW-Yryn-21" value="get location details" style="verticalAlign=bottom;endArrow=block;shadow=0;strokeWidth=1;" edge="1" parent="1" source="bV1dGxDPQDkdGFW-Yryn-2" target="bV1dGxDPQDkdGFW-Yryn-6">
          <mxGeometry x="0.7606" relative="1" as="geometry">
            <mxPoint x="880" y="510" as="sourcePoint" />
            <mxPoint x="1290" y="510" as="targetPoint" />
            <Array as="points">
              <mxPoint x="1280" y="510" />
            </Array>
            <mxPoint as="offset" />
          </mxGeometry>
        </mxCell>
        <mxCell id="bV1dGxDPQDkdGFW-Yryn-22" value="return location details" style="html=1;verticalAlign=bottom;endArrow=open;dashed=1;endSize=8;" edge="1" parent="1" source="bV1dGxDPQDkdGFW-Yryn-6" target="bV1dGxDPQDkdGFW-Yryn-2">
          <mxGeometry x="-0.7606" relative="1" as="geometry">
            <mxPoint x="1240" y="540" as="sourcePoint" />
            <mxPoint x="1160" y="540" as="targetPoint" />
            <Array as="points">
              <mxPoint x="1140" y="540" />
            </Array>
            <mxPoint as="offset" />
          </mxGeometry>
        </mxCell>
        <mxCell id="bV1dGxDPQDkdGFW-Yryn-25" value="FirebaseHelper.getLocationActivity()" style="verticalAlign=bottom;endArrow=block;shadow=0;strokeWidth=1;" edge="1" parent="1" source="bV1dGxDPQDkdGFW-Yryn-2" target="bV1dGxDPQDkdGFW-Yryn-4">
          <mxGeometry x="0.5517" relative="1" as="geometry">
            <mxPoint x="870" y="660" as="sourcePoint" />
            <mxPoint x="1040" y="660" as="targetPoint" />
            <Array as="points">
              <mxPoint x="1040" y="660" />
            </Array>
            <mxPoint as="offset" />
          </mxGeometry>
        </mxCell>
        <mxCell id="bV1dGxDPQDkdGFW-Yryn-26" value="return location activity" style="html=1;verticalAlign=bottom;endArrow=open;dashed=1;endSize=8;" edge="1" parent="1" target="bV1dGxDPQDkdGFW-Yryn-2">
          <mxGeometry x="-0.5368" relative="1" as="geometry">
            <mxPoint x="1320" y="680" as="sourcePoint" />
            <mxPoint x="870" y="679.9999999999999" as="targetPoint" />
            <Array as="points" />
            <mxPoint as="offset" />
          </mxGeometry>
        </mxCell>
        <mxCell id="bV1dGxDPQDkdGFW-Yryn-23" value="FirebaseHelper.getReviews()" style="verticalAlign=bottom;endArrow=block;shadow=0;strokeWidth=1;" edge="1" parent="1" source="bV1dGxDPQDkdGFW-Yryn-2" target="bV1dGxDPQDkdGFW-Yryn-4">
          <mxGeometry x="0.5933" relative="1" as="geometry">
            <mxPoint x="870" y="592" as="sourcePoint" />
            <mxPoint x="1290" y="590" as="targetPoint" />
            <Array as="points">
              <mxPoint x="1280" y="590" />
            </Array>
            <mxPoint as="offset" />
          </mxGeometry>
        </mxCell>
        <mxCell id="bV1dGxDPQDkdGFW-Yryn-24" value="return location reviews" style="html=1;verticalAlign=bottom;endArrow=open;dashed=1;endSize=8;" edge="1" parent="1" target="bV1dGxDPQDkdGFW-Yryn-2">
          <mxGeometry x="-0.5985" relative="1" as="geometry">
            <mxPoint x="1320" y="610" as="sourcePoint" />
            <mxPoint x="860" y="612" as="targetPoint" />
            <Array as="points">
              <mxPoint x="1140" y="610" />
            </Array>
            <mxPoint as="offset" />
          </mxGeometry>
        </mxCell>
        <mxCell id="bV1dGxDPQDkdGFW-Yryn-29" value=":SocialFeedActivity" style="shape=umlLifeline;perimeter=lifelinePerimeter;container=1;collapsible=0;recursiveResize=0;rounded=0;shadow=0;strokeWidth=1;" vertex="1" parent="1">
          <mxGeometry x="1000" y="80" width="160" height="960" as="geometry" />
        </mxCell>
        <mxCell id="bV1dGxDPQDkdGFW-Yryn-30" value="" style="points=[];perimeter=orthogonalPerimeter;rounded=0;shadow=0;strokeWidth=1;" vertex="1" parent="bV1dGxDPQDkdGFW-Yryn-29">
          <mxGeometry x="75" y="860" width="10" height="60" as="geometry" />
        </mxCell>
        <mxCell id="bV1dGxDPQDkdGFW-Yryn-31" value="startRouteToLocation()" style="verticalAlign=bottom;endArrow=block;shadow=0;strokeWidth=1;" edge="1" parent="1" source="bV1dGxDPQDkdGFW-Yryn-2" target="3nuBFxr9cyL0pnOWT2aG-2">
          <mxGeometry x="0.7299" relative="1" as="geometry">
            <mxPoint x="820" y="720" as="sourcePoint" />
            <mxPoint x="190" y="730" as="targetPoint" />
            <Array as="points">
              <mxPoint x="640" y="730" />
            </Array>
            <mxPoint as="offset" />
          </mxGeometry>
        </mxCell>
        <mxCell id="bV1dGxDPQDkdGFW-Yryn-32" value="startRouteToLocation()" style="verticalAlign=bottom;endArrow=block;shadow=0;strokeWidth=1;" edge="1" parent="1" source="3nuBFxr9cyL0pnOWT2aG-2" target="bV1dGxDPQDkdGFW-Yryn-9">
          <mxGeometry x="-0.0556" relative="1" as="geometry">
            <mxPoint x="210" y="770" as="sourcePoint" />
            <mxPoint x="390" y="770" as="targetPoint" />
            <Array as="points">
              <mxPoint x="325" y="770" />
            </Array>
            <mxPoint as="offset" />
          </mxGeometry>
        </mxCell>
        <mxCell id="bV1dGxDPQDkdGFW-Yryn-33" value="get routing information" style="verticalAlign=bottom;endArrow=block;shadow=0;strokeWidth=1;" edge="1" parent="1" source="3nuBFxr9cyL0pnOWT2aG-2" target="bV1dGxDPQDkdGFW-Yryn-5">
          <mxGeometry x="0.8707" relative="1" as="geometry">
            <mxPoint x="190" y="800.0000000000002" as="sourcePoint" />
            <mxPoint x="374.5" y="800.0000000000002" as="targetPoint" />
            <Array as="points">
              <mxPoint x="340" y="800" />
            </Array>
            <mxPoint as="offset" />
          </mxGeometry>
        </mxCell>
        <mxCell id="bV1dGxDPQDkdGFW-Yryn-34" value="return routing information" style="html=1;verticalAlign=bottom;endArrow=open;dashed=1;endSize=8;" edge="1" parent="1" source="bV1dGxDPQDkdGFW-Yryn-5" target="3nuBFxr9cyL0pnOWT2aG-2">
          <mxGeometry x="-0.8712" relative="1" as="geometry">
            <mxPoint x="1550" y="830" as="sourcePoint" />
            <mxPoint x="200" y="830" as="targetPoint" />
            <Array as="points">
              <mxPoint x="1035" y="830" />
            </Array>
            <mxPoint as="offset" />
          </mxGeometry>
        </mxCell>
        <mxCell id="bV1dGxDPQDkdGFW-Yryn-36" value="openLocationDetailView()" style="verticalAlign=bottom;endArrow=block;shadow=0;strokeWidth=1;" edge="1" parent="1" source="3nuBFxr9cyL0pnOWT2aG-2" target="bV1dGxDPQDkdGFW-Yryn-35">
          <mxGeometry x="0.7121" relative="1" as="geometry">
            <mxPoint x="175" y="890" as="sourcePoint" />
            <mxPoint x="800" y="890" as="targetPoint" />
            <Array as="points">
              <mxPoint x="425" y="890" />
              <mxPoint x="515" y="890" />
            </Array>
            <mxPoint as="offset" />
          </mxGeometry>
        </mxCell>
        <mxCell id="bV1dGxDPQDkdGFW-Yryn-37" value="postReviewToFirebase()" style="verticalAlign=bottom;endArrow=block;shadow=0;strokeWidth=1;" edge="1" parent="1" source="bV1dGxDPQDkdGFW-Yryn-35" target="bV1dGxDPQDkdGFW-Yryn-4">
          <mxGeometry x="0.6383" relative="1" as="geometry">
            <mxPoint x="870" y="910.0000000000002" as="sourcePoint" />
            <mxPoint x="1290" y="910" as="targetPoint" />
            <Array as="points">
              <mxPoint x="1120" y="910" />
              <mxPoint x="1210" y="910" />
            </Array>
            <mxPoint as="offset" />
          </mxGeometry>
        </mxCell>
        <mxCell id="bV1dGxDPQDkdGFW-Yryn-39" value="openSocialFeedView()" style="verticalAlign=bottom;endArrow=block;shadow=0;strokeWidth=1;" edge="1" parent="1" source="3nuBFxr9cyL0pnOWT2aG-2" target="bV1dGxDPQDkdGFW-Yryn-30">
          <mxGeometry x="0.7667" relative="1" as="geometry">
            <mxPoint x="210" y="960" as="sourcePoint" />
            <mxPoint x="870" y="960" as="targetPoint" />
            <Array as="points">
              <mxPoint x="460" y="960" />
              <mxPoint x="550" y="960" />
            </Array>
            <mxPoint as="offset" />
          </mxGeometry>
        </mxCell>
        <mxCell id="bV1dGxDPQDkdGFW-Yryn-40" value="postActivityToFirebase()" style="verticalAlign=bottom;endArrow=block;shadow=0;strokeWidth=1;" edge="1" parent="1" source="bV1dGxDPQDkdGFW-Yryn-30" target="bV1dGxDPQDkdGFW-Yryn-4">
          <mxGeometry x="0.2609" relative="1" as="geometry">
            <mxPoint x="1110" y="980" as="sourcePoint" />
            <mxPoint x="1300" y="980" as="targetPoint" />
            <Array as="points">
              <mxPoint x="1260" y="980" />
            </Array>
            <mxPoint as="offset" />
          </mxGeometry>
        </mxCell>
      </root>
    </mxGraphModel>
  </diagram>
</mxfile>
